<mxfile host="app.diagrams.net" modified="2023-05-12T16:27:03.709Z" agent="Mozilla/5.0 (Windows NT 10.0; Win64; x64) AppleWebKit/537.36 (KHTML, like Gecko) Chrome/113.0.0.0 Safari/537.36" etag="AMoQVqtlmcPN6T9BQK28" version="21.2.9" type="device">
  <diagram name="Page-1" id="thR3NN3NMHW-beJ4HE_6">
    <mxGraphModel dx="1436" dy="836" grid="1" gridSize="10" guides="1" tooltips="1" connect="1" arrows="1" fold="1" page="1" pageScale="1" pageWidth="827" pageHeight="1169" math="0" shadow="0">
      <root>
        <mxCell id="0" />
        <mxCell id="1" parent="0" />
        <mxCell id="4KrwqyuUGkWLALzLD0uy-10" style="edgeStyle=orthogonalEdgeStyle;rounded=0;orthogonalLoop=1;jettySize=auto;html=1;entryX=0;entryY=0.5;entryDx=0;entryDy=0;entryPerimeter=0;" edge="1" parent="1" source="4KrwqyuUGkWLALzLD0uy-1" target="4KrwqyuUGkWLALzLD0uy-3">
          <mxGeometry relative="1" as="geometry" />
        </mxCell>
        <mxCell id="4KrwqyuUGkWLALzLD0uy-1" value="&lt;b&gt;Unregister User&lt;/b&gt;" style="html=1;verticalLabelPosition=bottom;align=center;labelBackgroundColor=#ffffff;verticalAlign=top;strokeWidth=2;strokeColor=#0080F0;shadow=0;dashed=0;shape=mxgraph.ios7.icons.user;" vertex="1" parent="1">
          <mxGeometry x="63" y="101" width="70" height="70" as="geometry" />
        </mxCell>
        <mxCell id="4KrwqyuUGkWLALzLD0uy-12" style="edgeStyle=orthogonalEdgeStyle;rounded=0;orthogonalLoop=1;jettySize=auto;html=1;entryX=0;entryY=0.5;entryDx=0;entryDy=0;" edge="1" parent="1" source="4KrwqyuUGkWLALzLD0uy-2" target="4KrwqyuUGkWLALzLD0uy-5">
          <mxGeometry relative="1" as="geometry" />
        </mxCell>
        <mxCell id="4KrwqyuUGkWLALzLD0uy-2" value="&lt;b&gt;Found EduTeach&lt;br&gt;Web site&lt;/b&gt;" style="shape=image;html=1;verticalAlign=top;verticalLabelPosition=bottom;labelBackgroundColor=#ffffff;imageAspect=0;aspect=fixed;image=https://cdn1.iconfinder.com/data/icons/seo-and-web-development-6/32/Web_website_favorite_site_star-128.png" vertex="1" parent="1">
          <mxGeometry x="500" y="100" width="70" height="70" as="geometry" />
        </mxCell>
        <mxCell id="4KrwqyuUGkWLALzLD0uy-11" style="edgeStyle=orthogonalEdgeStyle;rounded=0;orthogonalLoop=1;jettySize=auto;html=1;entryX=0;entryY=0.5;entryDx=0;entryDy=0;" edge="1" parent="1" source="4KrwqyuUGkWLALzLD0uy-3" target="4KrwqyuUGkWLALzLD0uy-2">
          <mxGeometry relative="1" as="geometry" />
        </mxCell>
        <mxCell id="4KrwqyuUGkWLALzLD0uy-3" value="&lt;b&gt;Search the online&lt;br&gt;teacher trainer website&lt;/b&gt;" style="verticalLabelPosition=bottom;html=1;verticalAlign=top;align=center;strokeColor=none;fillColor=#00BEF2;shape=mxgraph.azure.azure_website;pointerEvents=1;" vertex="1" parent="1">
          <mxGeometry x="280" y="100" width="70" height="70" as="geometry" />
        </mxCell>
        <mxCell id="4KrwqyuUGkWLALzLD0uy-14" style="edgeStyle=orthogonalEdgeStyle;rounded=0;orthogonalLoop=1;jettySize=auto;html=1;entryX=1;entryY=0.5;entryDx=0;entryDy=0;" edge="1" parent="1" source="4KrwqyuUGkWLALzLD0uy-4" target="4KrwqyuUGkWLALzLD0uy-8">
          <mxGeometry relative="1" as="geometry" />
        </mxCell>
        <mxCell id="4KrwqyuUGkWLALzLD0uy-4" value="&lt;b&gt;Go to check about&lt;br&gt;course/&amp;nbsp; modules&lt;/b&gt;" style="shape=image;html=1;verticalAlign=top;verticalLabelPosition=bottom;labelBackgroundColor=#ffffff;imageAspect=0;aspect=fixed;image=https://cdn2.iconfinder.com/data/icons/seo-web-1-filled-outline/64/report-news-analytic-128.png" vertex="1" parent="1">
          <mxGeometry x="590" y="310" width="70" height="70" as="geometry" />
        </mxCell>
        <mxCell id="4KrwqyuUGkWLALzLD0uy-13" style="edgeStyle=orthogonalEdgeStyle;rounded=0;orthogonalLoop=1;jettySize=auto;html=1;entryX=1;entryY=0.5;entryDx=0;entryDy=0;" edge="1" parent="1" source="4KrwqyuUGkWLALzLD0uy-5" target="4KrwqyuUGkWLALzLD0uy-4">
          <mxGeometry relative="1" as="geometry">
            <Array as="points">
              <mxPoint x="710" y="345" />
            </Array>
          </mxGeometry>
        </mxCell>
        <mxCell id="4KrwqyuUGkWLALzLD0uy-5" value="&lt;b&gt;&amp;nbsp; &amp;nbsp;Choose sign up as&lt;br&gt;&amp;nbsp; &amp;nbsp; &amp;nbsp;teacher or lecturer&amp;nbsp;&lt;/b&gt;" style="image;html=1;image=img/lib/clip_art/people/Telesales_Man_128x128.png" vertex="1" parent="1">
          <mxGeometry x="690" y="95" width="45" height="80" as="geometry" />
        </mxCell>
        <mxCell id="4KrwqyuUGkWLALzLD0uy-6" value="" style="image;html=1;image=img/lib/clip_art/people/Tech_Man_128x128.png" vertex="1" parent="1">
          <mxGeometry x="715" y="95" width="45" height="80" as="geometry" />
        </mxCell>
        <mxCell id="4KrwqyuUGkWLALzLD0uy-15" style="edgeStyle=orthogonalEdgeStyle;rounded=0;orthogonalLoop=1;jettySize=auto;html=1;entryX=1;entryY=0.5;entryDx=0;entryDy=0;" edge="1" parent="1" source="4KrwqyuUGkWLALzLD0uy-8" target="4KrwqyuUGkWLALzLD0uy-9">
          <mxGeometry relative="1" as="geometry" />
        </mxCell>
        <mxCell id="4KrwqyuUGkWLALzLD0uy-8" value="&lt;b&gt;Fill the Form&lt;/b&gt;" style="shape=image;html=1;verticalAlign=top;verticalLabelPosition=bottom;labelBackgroundColor=#ffffff;imageAspect=0;aspect=fixed;image=https://cdn0.iconfinder.com/data/icons/analytic-investment-and-balanced-scorecard/512/11_Agreement_report_form_layout_paper-128.png" vertex="1" parent="1">
          <mxGeometry x="413" y="310" width="70" height="70" as="geometry" />
        </mxCell>
        <mxCell id="4KrwqyuUGkWLALzLD0uy-9" value="Sign up" style="shape=image;html=1;verticalAlign=top;verticalLabelPosition=bottom;labelBackgroundColor=#ffffff;imageAspect=0;aspect=fixed;image=https://cdn4.iconfinder.com/data/icons/bold-purple-free-samples/32/Done_Circle_Symbol_Downloaded-128.png" vertex="1" parent="1">
          <mxGeometry x="176" y="310" width="70" height="70" as="geometry" />
        </mxCell>
      </root>
    </mxGraphModel>
  </diagram>
</mxfile>
